<svg viewBox="188 0 20 20" version="1.1" xmlns="http://www.w3.org/2000/svg" xmlns:xlink="http://www.w3.org/1999/xlink"><path d="M196.392617,14.2311279 C194.831917,14.2311279 193.364661,13.6234601 192.261351,12.5201497 C191.157494,11.4162928 190.550373,9.94958395 190.550373,8.38888332 C190.550373,6.8281827 191.157494,5.36092739 192.261351,4.25761697 C193.400181,3.1187864 194.896399,2.54937111 196.392617,2.54937111 C197.888835,2.54937111 199.385053,3.1187864 200.523884,4.25761697 C201.62774,5.36092739 202.234862,6.8281827 202.234862,8.38888332 C202.234862,9.94958395 201.62774,11.4162928 200.523884,12.5201497 C199.420573,13.6234601 197.952771,14.2311279 196.392617,14.2311279 L196.392617,14.2311279 Z M207.364517,17.8153839 L202.784058,13.2343779 C203.840919,11.8458133 204.420717,10.1637978 204.420717,8.38888332 C204.420717,6.24455936 203.58572,4.22810792 202.069283,2.71167086 C198.939139,-0.418473805 193.845549,-0.417927341 190.715951,2.71167086 C189.199514,4.22810792 188.364517,6.24455936 188.364517,8.38888332 C188.364517,10.5332073 189.199514,12.5491123 190.715951,14.0655493 C192.231842,15.5819864 194.248293,16.4169831 196.392617,16.4169831 C198.167532,16.4169831 199.849547,15.837185 201.238112,14.7797775 L205.819118,19.3607836 L207.364517,17.8153839 Z" id="Fill-1" stroke="none" fill="#BABCBE" fill-rule="evenodd"></path></svg>