<svg width="28px" height="27px" viewBox="0 0 28 27" version="1.1" xmlns="http://www.w3.org/2000/svg" xmlns:xlink="http://www.w3.org/1999/xlink"><path d="M0.351049014,26 L6.25959426,26 L6.25959426,8.4992233 L0.351049014,8.4992233 L0.351049014,26 Z M3.34467604,0.0629805825 C1.32260296,0.0629805825 0,1.36884951 0,3.08611165 C0,4.76595146 1.28433817,6.11145146 3.26622361,6.11145146 L3.30570621,6.11145146 C5.36694142,6.11145146 6.64884397,4.76620388 6.64884397,3.08611165 C6.61000232,1.36884951 5.36694142,0.0629805825 3.34467604,0.0629805825 L3.34467604,0.0629805825 Z M27.568404,15.9649466 L27.568404,26 L21.6596024,26 L21.6596024,16.637034 C21.6596024,14.2849806 20.8049579,12.6797961 18.6661676,12.6797961 C17.0334724,12.6797961 16.0618544,13.7615728 15.634404,14.8080097 C15.4785247,15.1821068 15.4384011,15.702801 15.4384011,16.2264612 L15.4384011,26 L9.52761253,26 C9.52761253,26 9.60721868,10.1422087 9.52761253,8.4992233 L15.4378242,8.4992233 L15.4378242,10.9798883 C15.4258385,10.9984417 15.4102633,11.0184466 15.3989826,11.036432 L15.4378242,11.036432 L15.4378242,10.9798883 C16.2230537,9.78912621 17.625391,8.08808252 20.7642575,8.08808252 C24.6531012,8.08801942 27.568404,10.5893835 27.568404,15.9649466 L27.568404,15.9649466 Z" stroke="none" fill="#FFFFFF" fill-rule="evenodd"></path></svg>