<svg width="25px" height="25px" viewBox="359 3 25 25" version="1.1" xmlns="http://www.w3.org/2000/svg" xmlns:xlink="http://www.w3.org/1999/xlink">					
						<defs>
							<polygon points="0 0.217314749 24.6731357 0.217314749 24.6731357 24.7395833 0 24.7395833"></polygon>
						</defs>
						<g stroke="none" stroke-width="1" fill="none" fill-rule="evenodd" transform="translate(359.000000, 3.000000)">
							<mask fill="white">
								<use xlink:href="#path-1"></use>
							</mask>
							<g></g>
							<path d="M12.3599589,7.65369614 C9.62431333,7.65369614 7.40541968,9.78917199 7.40541968,12.4264678 C7.40541968,15.0609523 9.62431333,17.1983961 12.3599589,17.1983961 C15.0967358,17.1983961 17.3159123,15.0609523 17.3159123,12.4264678 C17.3159123,9.78917199 15.0967358,7.65369614 12.3599589,7.65369614 L12.3599589,7.65369614 Z M21.8840897,10.5875858 L19.7129963,10.5875858 C19.9189051,11.2561168 20.0306276,11.9600704 20.0306276,12.6932617 C20.0306276,16.7713571 16.5955143,20.0783085 12.3599589,20.0783085 C8.12525197,20.0783085 4.69013873,16.7713571 4.69013873,12.6932617 C4.69013873,11.9600704 4.80299259,11.2561168 5.00777003,10.5875858 L2.74277317,10.5875858 L2.74277317,20.9475675 C2.74277317,21.4839666 3.18344064,21.9200018 3.72281989,21.9200018 L20.9040429,21.9200018 C21.4439879,21.9200018 21.8840897,21.4839666 21.8840897,20.9475675 L21.8840897,10.5875858 Z M17.9740851,2.94080552 C17.3625812,2.94080552 16.8633655,3.43953303 16.8633655,4.04677734 L16.8633655,6.68772786 C16.8633655,7.29637784 17.3625812,7.79257517 17.9740851,7.79257517 L20.7623392,7.79257517 C21.3729946,7.79257517 21.8730588,7.29637784 21.8730588,6.68772786 L21.8730588,4.04677734 C21.8730588,3.43953303 21.3729946,2.94080552 20.7623392,2.94080552 L17.9740851,2.94080552 Z M3.16788434,0.217483428 L21.5067787,0.217483428 C23.2488012,0.217483428 24.6731923,1.63354344 24.6731923,3.36531428 L24.6731923,21.5933268 C24.6731923,23.3245354 23.2488012,24.7394709 21.5067787,24.7394709 L3.16788434,24.7394709 C1.42586191,24.7394709 5.65683531e-05,23.3245354 5.65683531e-05,21.5933268 L5.65683531e-05,3.36531428 C5.65683531e-05,1.63354344 1.42586191,0.217483428 3.16788434,0.217483428 L3.16788434,0.217483428 Z" fill="#FFFFFF" mask="url(#mask-2)"></path>
						</g>
					</svg>