<?xml version="1.0" encoding="utf-8"?>
<!-- Generator: Adobe Illustrator 25.3.1, SVG Export Plug-In . SVG Version: 6.00 Build 0)  -->
<svg version="1.1" id="Capa_1" xmlns="http://www.w3.org/2000/svg" xmlns:xlink="http://www.w3.org/1999/xlink" x="0px" y="0px"
	 viewBox="0 0 512 512" style="enable-background:new 0 0 512 512;" xml:space="preserve">
<style type="text/css">
	.st0{fill:#FFB864;}
	.st1{fill:#F4A651;}
	.st2{fill:#A5663C;}
	.st3{fill:#89563A;}
</style>
<circle class="st0" cx="256" cy="256" r="248.5"/>
<path class="st1" d="M352.9,465.2c-2.7,0-5.4-1.5-6.7-4.1c-1.9-3.7-0.4-8.2,3.3-10.1c21.3-10.8,40.8-26.5,58-46.5
	c6.1-7.2,12-15,17.3-23.2c2.3-3.5,6.9-4.5,10.4-2.2c3.5,2.3,4.5,6.9,2.2,10.4c-5.7,8.7-11.9,17-18.4,24.7
	c-18.4,21.6-39.5,38.5-62.6,50.2C355.2,465,354,465.2,352.9,465.2z"/>
<path id="SVGCleanerId_0" class="st2" d="M413.9,164.4c-11.6,38-22.9,47.1-41.4,41.4c-21.9-6.7-47.9-21.7-41.4-41.4
	c7.1-21.7,16.3-46.1,41.4-41.4C397.9,127.8,420.5,142.5,413.9,164.4z"/>
<g>
	<path class="st2" d="M159.3,389c-38.3,10.7-52.1,6-57.2-12.6c-6.1-22.1-7.5-52,12.6-57.2c22.2-5.7,47.7-11.1,57.2,12.6
		C181.6,355.8,181.3,382.8,159.3,389z"/>
	<path class="st2" d="M395.6,373.7c-25.7,30.3-39.7,34.2-54.4,21.6c-17.4-14.8-35.4-38.8-21.6-54.4c15.1-17.1,33.2-35.9,54.4-21.6
		C395.5,333.8,410.4,356.3,395.6,373.7z"/>
	<path class="st2" d="M140.9,164c-28.6-27.6-31.6-41.8-18.1-55.7c15.9-16.4,41-32.8,55.7-18.1c16.2,16.2,33.7,35.5,18.1,55.7
		C180.8,166.3,157.4,179.8,140.9,164z"/>
	<circle class="st2" cx="243.3" cy="400.5" r="15.1"/>
	<circle class="st2" cx="420" cy="271" r="15.1"/>
	<circle class="st2" cx="307.5" cy="89.8" r="15.1"/>
</g>
<path class="st1" d="M156.9,389.6c-36.5,9.8-49.8,5-54.8-13.3c-6.1-22.1-7.5-52,12.6-57.2c3.5-0.9,7.1-1.8,10.7-2.6
	c-4.9-19.4-7.5-39.7-7.5-60.6c0-34,6.8-66.3,19.2-95.8c-25-25.1-27.2-38.7-14.3-51.9c15.9-16.4,41-32.8,55.7-18.1
	c0.5,0.5,1,1,1.5,1.6c33.9-38.4,79.5-66.3,131.2-78c-17.8-4-36.2-6.2-55.2-6.2C118.8,7.5,7.5,118.8,7.5,256S118.8,504.5,256,504.5
	c19,0,37.5-2.1,55.2-6.2C246.6,483.6,191.5,443.8,156.9,389.6z"/>
<circle class="st3" cx="78.1" cy="250.6" r="15.1"/>
<g>
	<path id="SVGCleanerId_0_1_" class="st2" d="M413.9,164.4c-11.6,38-22.9,47.1-41.4,41.4c-21.9-6.7-47.9-21.7-41.4-41.4
		c7.1-21.7,16.3-46.1,41.4-41.4C397.9,127.8,420.5,142.5,413.9,164.4z"/>
</g>
<g>
	<path class="st3" d="M102.1,376.3c5,18.3,18.3,23.1,54.8,13.3c-14.2-22.2-24.9-46.8-31.5-73c-3.6,0.8-7.2,1.7-10.7,2.6
		C94.6,324.3,96,354.3,102.1,376.3z"/>
	<path class="st3" d="M122.8,108.3c-12.9,13.3-10.7,26.8,14.3,51.9c10.5-25.2,25.1-48.3,42.9-68.5c-0.5-0.5-1-1-1.5-1.6
		C163.8,75.4,138.7,91.8,122.8,108.3z"/>
</g>
<path d="M381.7,214.9c-3.6,0-7.4-0.6-11.5-1.9c-10.4-3.2-35.6-12.5-44.6-29.9c-3.5-6.7-4.1-14-1.8-21c3.8-11.6,8.1-23.7,15.1-32.9
	c9-11.7,20.7-16.2,34.8-13.6c20.7,3.9,36.8,13.1,44.2,25.3c4.7,7.8,5.8,16.7,3,25.7c-7.9,26-15.9,39.5-26.8,45.2
	C390.4,213.9,386.3,214.9,381.7,214.9z M366.5,130c-13.6,0-20.7,13.3-28.4,36.8c-1.1,3.3-0.8,6.2,0.9,9.4c4.4,8.4,18,17,35.6,22.5
	c6.9,2.1,10.4,1.1,12.6-0.1c6.7-3.6,13.1-15.4,19.4-36.3l0,0c1.5-4.9,1-9.4-1.5-13.6c-5-8.3-18.1-15.3-34.1-18.3
	C369.5,130.1,368,130,366.5,130z"/>
<path d="M127.1,402.1c-7.5,0-13.4-1.4-18.3-4.2c-6.8-3.8-11.3-10.3-13.9-19.6c-0.2-0.7-0.4-1.5-0.6-2.2c-1-4,1.4-8.1,5.4-9.2
	c4-1,8.1,1.4,9.2,5.4c0.2,0.7,0.3,1.3,0.5,2c1.9,7,4.7,9.3,6.8,10.5c6.6,3.7,20,2.7,41.1-3.2c5-1.4,8.5-4.2,10.6-8.6
	c4.3-8.7,3.1-23.4-2.9-38.6c-6.3-15.7-21.8-15-48.3-8.2c-2.2,0.6-8.8,2.3-10.5,15.8c-0.5,4.1-4.3,7-8.4,6.5c-4.1-0.5-7-4.3-6.5-8.4
	c2-15.2,9.7-25.4,21.7-28.4c11.8-3,24.4-5.9,35.9-4.9c14.7,1.3,24.8,8.7,30.2,22c7.9,19.6,8.8,38.1,2.5,50.9
	c-4,8.2-11,13.9-20.1,16.4C147.1,400.2,136,402.1,127.1,402.1z"/>
<path d="M356.7,409.6c-7,0-13.7-2.8-20.4-8.5c-8.3-7.1-27.7-25.6-29.1-45.1c-0.5-7.5,1.8-14.5,6.7-20c8.1-9.2,16.8-18.6,26.9-24.2
	c12.9-7.2,25.4-6.7,37.4,1.3c17.5,11.8,28.6,26.6,30.6,40.7c1.3,9.1-1.3,17.6-7.4,24.8v0c-17.5,20.7-30.3,29.9-42.5,30.9
	C358.2,409.6,357.4,409.6,356.7,409.6z M358.8,321.8c-10.1,0-20.3,9-33.6,24.1c-2.3,2.6-3.2,5.4-3,9c0.7,9.5,9.8,22.8,23.8,34.7
	c5.5,4.7,9.1,5.1,11.6,4.9c7.6-0.6,18.1-9,32.2-25.7v0c3.3-3.9,4.6-8.2,4-13c-1.3-9.6-10.5-21.2-24.1-30.3
	C366.1,323,362.4,321.8,358.8,321.8z"/>
<path d="M157.6,178.5c-8.2,0-15.7-3.1-21.9-9.1l0,0c-19.5-18.8-28-32.1-28.2-44.4c-0.1-7.8,3.1-15,9.9-22c7.6-7.8,27.3-26,46.9-26.1
	c7.5-0.1,14.3,2.7,19.6,7.9c8.6,8.7,17.5,18,22.4,28.4c6.3,13.3,5.1,25.8-3.7,37.2c-12.9,16.7-28.4,26.9-42.6,27.9
	C159.2,178.4,158.4,178.5,157.6,178.5z M146.2,158.5c3.7,3.6,7.9,5.2,12.8,4.8c9.6-0.7,21.8-9.2,31.8-22.1
	c10.3-13.4,1.8-26.4-17.5-45.8c-2.4-2.4-5.2-3.5-8.8-3.5c-9.5,0.1-23.3,8.3-36.2,21.6c-5.1,5.2-5.7,8.7-5.6,11.2
	C122.7,132.3,130.4,143.4,146.2,158.5L146.2,158.5z"/>
<path d="M243.3,423c-12.5,0-22.6-10.1-22.6-22.6c0-12.5,10.1-22.6,22.6-22.6c12.5,0,22.6,10.1,22.6,22.6
	C265.9,412.9,255.7,423,243.3,423z M243.3,392.9c-4.2,0-7.5,3.4-7.5,7.5c0,4.2,3.4,7.5,7.5,7.5c4.2,0,7.5-3.4,7.5-7.5
	C250.8,396.3,247.4,392.9,243.3,392.9z"/>
<path d="M420,293.6c-12.5,0-22.6-10.1-22.6-22.6c0-12.5,10.1-22.6,22.6-22.6s22.6,10.1,22.6,22.6S432.5,293.6,420,293.6z M420,263.5
	c-4.2,0-7.5,3.4-7.5,7.5c0,4.2,3.4,7.5,7.5,7.5c4.2,0,7.5-3.4,7.5-7.5S424.2,263.5,420,263.5z"/>
<path d="M78.1,273.2c-12.5,0-22.6-10.1-22.6-22.6c0-12.5,10.1-22.6,22.6-22.6s22.6,10.1,22.6,22.6
	C100.7,263.1,90.5,273.2,78.1,273.2z M78.1,243.1c-4.2,0-7.5,3.4-7.5,7.5s3.4,7.5,7.5,7.5s7.5-3.4,7.5-7.5S82.2,243.1,78.1,243.1z"
	/>
<path d="M307.5,112.4c-12.5,0-22.6-10.1-22.6-22.6s10.1-22.6,22.6-22.6c12.5,0,22.6,10.1,22.6,22.6S319.9,112.4,307.5,112.4z
	 M307.5,82.3c-4.2,0-7.5,3.4-7.5,7.5s3.4,7.5,7.5,7.5c4.2,0,7.5-3.4,7.5-7.5S311.6,82.3,307.5,82.3z"/>
<path d="M256,512c-68.4,0-132.7-26.6-181-75S0,324.4,0,256S26.6,123.3,75,75S187.6,0,256,0s132.7,26.6,181,75s75,112.6,75,181
	s-26.6,132.7-75,181S324.4,512,256,512z M256,15.1C123.1,15.1,15.1,123.1,15.1,256S123.1,496.9,256,496.9S496.9,388.9,496.9,256
	S388.9,15.1,256,15.1z"/>
</svg>
