<svg width="32px" height="26px" viewBox="303 2 32 26" version="1.1" xmlns="http://www.w3.org/2000/svg" xmlns:xlink="http://www.w3.org/1999/xlink">
						<defs><polyline points="0 0.0539731495 30.5915321 0.0539731495 30.5915321 24.7641509 0 24.7641509"></polyline></defs>
						<g stroke="none" stroke-width="1" fill="none" fill-rule="evenodd" transform="translate(303.918355, 2.583333)">
							<mask fill="white">
								<use xlink:href="#path-1"></use>
							</mask>
							<g></g>
							<path d="M30.5916918,2.97861938 C29.4663736,3.47485486 28.2557703,3.81044086 26.9870324,3.9609307 C28.2826016,3.18879717 29.2791933,1.96678157 29.7468248,0.50982402 C28.5355826,1.22480951 27.1927391,1.7442217 25.7623745,2.0242471 C24.6166135,0.81112119 22.985014,0.0539096517 21.1802886,0.0539096517 C17.7139383,0.0539096517 14.9036775,2.84749637 14.9036775,6.29225327 C14.9036775,6.78182148 14.9589372,7.25710269 15.065943,7.71333454 C9.84916881,7.45426343 5.22555829,4.97054608 2.1294162,1.19496553 C1.59023454,2.1175889 1.28039674,3.18879717 1.28039674,4.33207547 C1.28039674,6.49576379 2.38814674,8.40673077 4.07117291,9.52397496 C3.04327801,9.49317852 2.07543415,9.21029572 1.22897005,8.74326923 L1.22897005,8.82200653 C1.22897005,11.8445029 3.39272395,14.3663189 6.2630358,14.9393868 C5.73663096,15.0813044 5.18052001,15.1594067 4.60971573,15.1594067 C4.20596833,15.1594067 3.81148411,15.1190856 3.42817961,15.0460631 C4.22705007,17.5243832 6.54444519,19.3277213 9.2905025,19.3791546 C7.14399731,21.0516872 4.43850639,22.049873 1.49600552,22.049873 C0.990043579,22.049873 0.491108889,22.0197115 0.000159710208,21.9625635 C2.77688138,23.7303429 6.07617486,24.7640874 9.62238032,24.7640874 C21.1659147,24.7640874 27.478301,15.2600508 27.478301,7.01517598 C27.478301,6.74562772 27.4715932,6.47671444 27.4613717,6.20716618 C28.6853907,5.3286738 29.7481025,4.23016147 30.5916918,2.97861938" fill="#FFFFFF" mask="url(#mask-2)"></path>
						</g>
					</svg>